<?xml version="1.0" encoding="UTF-8" standalone="no"?>
<!-- Generator: Adobe Illustrator 16.0.0, SVG Export Plug-In . SVG Version: 6.00 Build 0)  -->

<svg
   xmlns:dc="http://purl.org/dc/elements/1.1/"
   xmlns:cc="http://creativecommons.org/ns#"
   xmlns:rdf="http://www.w3.org/1999/02/22-rdf-syntax-ns#"
   xmlns:svg="http://www.w3.org/2000/svg"
   xmlns="http://www.w3.org/2000/svg"
   xmlns:sodipodi="http://sodipodi.sourceforge.net/DTD/sodipodi-0.dtd"
   xmlns:inkscape="http://www.inkscape.org/namespaces/inkscape"
   version="1.1"
   id="Capa_1"
   x="0px"
   y="0px"
   width="235.61174"
   height="50.168102"
   viewBox="0 0 235.61173 50.168101"
   enable-background="new 0 0 841.89 595.28"
   xml:space="preserve"
   inkscape:version="0.48.2 r9819"
   sodipodi:docname="Maprosoft-logo-113x24.svg"><metadata
   id="metadata83"><rdf:RDF><cc:Work
       rdf:about=""><dc:format>image/svg+xml</dc:format><dc:type
         rdf:resource="http://purl.org/dc/dcmitype/StillImage" /><dc:title></dc:title></cc:Work></rdf:RDF></metadata><defs
   id="defs81" /><sodipodi:namedview
   pagecolor="#ffffff"
   bordercolor="#666666"
   borderopacity="1"
   objecttolerance="10"
   gridtolerance="10"
   guidetolerance="10"
   inkscape:pageopacity="0"
   inkscape:pageshadow="2"
   inkscape:window-width="1705"
   inkscape:window-height="1039"
   id="namedview79"
   showgrid="false"
   inkscape:zoom="4.41"
   inkscape:cx="124.0277"
   inkscape:cy="29.742975"
   inkscape:window-x="0"
   inkscape:window-y="0"
   inkscape:window-maximized="0"
   inkscape:current-layer="layer1"
   fit-margin-top="0"
   fit-margin-left="0"
   fit-margin-right="0"
   fit-margin-bottom="0" />
<g
   id="g3"
   transform="matrix(0.32077126,0,0,0.32077126,-17.360033,-70.191488)">
	<g
   id="g5">
		<path
   d="m 257.463,340.864 v -78.3 c 0,-2.542 0.89,-4.703 2.669,-6.482 1.779,-1.78 3.94,-2.752 6.482,-2.924 h 17.542 l 17.287,66.861 17.287,-66.861 h 26.693 v 87.707 h -16.779 v -70.673 l -17.795,70.673 H 292.29 l -18.05,-70.673 v 70.673 h -16.777 z"
   id="path7"
   inkscape:connector-curvature="0"
   style="fill:#706f6f" />
		<path
   d="m 396.218,338.068 c -3.559,1.867 -7.333,3.007 -11.313,3.432 -3.984,0.421 -7.5,0.636 -10.55,0.636 -6.102,0 -11.44,-1.652 -16.016,-4.957 -4.576,-3.306 -6.864,-8.771 -6.864,-16.397 0,-7.118 2.073,-12.203 6.229,-15.254 4.15,-3.051 9.445,-5.084 15.888,-6.101 0.847,0 1.863,-0.128 3.051,-0.382 1.184,-0.254 2.542,-0.465 4.067,-0.636 7.456,-1.017 11.186,-3.217 11.186,-6.61 0,-2.542 -1.315,-4.194 -3.94,-4.957 -2.63,-0.762 -5.045,-1.144 -7.246,-1.144 -2.375,0 -4.493,0.342 -6.355,1.017 -1.867,0.679 -3.222,1.95 -4.068,3.813 h -17.033 c 0.675,-5.251 3.051,-9.573 7.118,-12.966 4.576,-3.896 11.099,-5.847 19.575,-5.847 9.49,0 16.608,1.613 21.355,4.831 4.913,3.392 7.372,8.135 7.372,14.236 v 23.134 c 0,6.781 -1.231,12.075 -3.686,15.889 -2.458,3.814 -5.382,6.571 -8.77,8.263 z m -4.068,-31.269 c -2.375,1.188 -5.68,2.288 -9.915,3.305 l -5.847,1.271 c -3.051,0.85 -5.255,1.95 -6.61,3.305 -1.188,1.867 -1.78,3.73 -1.78,5.593 0,2.542 0.763,4.576 2.288,6.102 1.525,1.358 3.726,2.033 6.61,2.033 4.742,0 8.472,-1.354 11.185,-4.067 2.709,-2.709 4.068,-6.438 4.068,-11.186 v -6.356 z"
   id="path9"
   inkscape:connector-curvature="0"
   style="fill:#706f6f" />
		<path
   d="m 431.759,357.135 c 0,2.371 -0.851,4.405 -2.543,6.102 -1.696,1.692 -3.729,2.542 -6.102,2.542 h -8.643 v -63.302 c 0,-11.86 3.472,-19.956 10.423,-24.277 6.947,-4.322 14.49,-6.483 22.626,-6.483 4.234,0 8.517,0.807 12.838,2.416 4.321,1.612 7.754,3.94 10.296,6.991 5.085,6.609 7.627,15.086 7.627,25.422 0,10.677 -2.542,19.32 -7.627,25.931 -5.084,6.442 -11.611,9.66 -19.575,9.66 -4.238,0 -7.968,-0.763 -11.186,-2.288 -3.393,-1.692 -6.102,-4.321 -8.135,-7.881 v 25.167 z m 28.98,-49.827 c 0,-6.61 -1.271,-11.694 -3.813,-15.253 -2.542,-3.56 -6.188,-5.339 -10.932,-5.339 -4.575,0 -8.135,1.779 -10.677,5.339 -2.375,3.221 -3.559,8.305 -3.559,15.253 0,6.442 1.271,11.272 3.813,14.49 2.543,3.56 6.185,5.339 10.932,5.339 4.405,0 7.881,-1.779 10.423,-5.339 2.543,-3.56 3.813,-8.39 3.813,-14.49 z"
   id="path11"
   inkscape:connector-curvature="0"
   style="fill:#706f6f" />
		<path
   d="M 484.586,340.864 V 308.07 c 0,-6.61 0.973,-12.16 2.923,-16.652 1.946,-4.489 4.616,-8.091 8.009,-10.804 3.217,-2.542 6.991,-4.406 11.313,-5.594 4.322,-1.183 8.771,-1.779 13.347,-1.779 0.338,0 0.763,0 1.271,0 0.508,0 0.93,0 1.271,0 v 18.05 h -5.847 c -4.918,0 -8.561,1.188 -10.932,3.56 -2.375,2.375 -3.56,6.102 -3.56,11.186 v 34.828 h -17.795 z"
   id="path13"
   inkscape:connector-curvature="0"
   style="fill:#706f6f" />
		<path
   d="m 536.142,334.763 c -3.559,-3.05 -6.101,-7.157 -7.626,-12.329 -1.525,-5.168 -2.288,-10.551 -2.288,-16.144 0,-4.576 0.636,-9.151 1.906,-13.728 1.271,-4.576 3.262,-8.39 5.975,-11.44 4.405,-5.084 10.081,-8.091 17.033,-9.025 6.947,-0.929 13.219,-0.381 18.813,1.653 6.438,2.542 11.186,6.952 14.236,13.22 2.88,5.593 4.321,12.119 4.321,19.575 0,5.426 -0.596,10.085 -1.779,13.982 -1.188,3.9 -2.713,7.205 -4.576,9.914 -4.067,5.593 -9.239,9.068 -15.508,10.423 -5.593,1.525 -11.229,1.652 -16.905,0.382 -5.681,-1.27 -10.214,-3.432 -13.602,-6.483 z m 12.203,-44.743 c -3.56,3.901 -5.172,9.705 -4.83,17.415 0.337,7.714 1.779,13.093 4.321,16.143 1.018,1.358 2.797,2.503 5.339,3.433 2.542,0.934 5.124,1.017 7.754,0.254 2.626,-0.763 4.957,-2.67 6.991,-5.72 2.034,-3.051 3.134,-7.965 3.305,-14.745 0,-6.102 -0.977,-10.677 -2.924,-13.728 -1.95,-3.051 -4.194,-4.997 -6.736,-5.847 -2.543,-0.847 -5.085,-0.89 -7.627,-0.127 -2.542,0.763 -4.41,1.738 -5.593,2.922 z"
   id="path15"
   inkscape:connector-curvature="0"
   style="fill:#706f6f" />
		<path
   d="m 593.037,318.493 h 17.287 c 0.167,3.393 1.438,5.935 3.813,7.627 2.542,1.695 5.931,2.542 10.169,2.542 3.051,0 5.676,-0.592 7.881,-1.78 2.033,-1.184 3.051,-2.796 3.051,-4.829 0,-3.051 -3.56,-5.339 -10.678,-6.864 -3.051,-0.509 -5.339,-1.018 -6.864,-1.525 -8.985,-2.2 -14.999,-4.83 -18.05,-7.881 -3.392,-3.051 -5.084,-7.119 -5.084,-12.203 0,-6.439 2.455,-11.778 7.372,-16.017 5.085,-3.896 11.694,-5.847 19.829,-5.847 8.811,0 15.846,1.951 21.102,5.847 4.913,4.239 7.539,9.749 7.881,16.524 h -10.933 c -3.222,0 -5.68,-1.438 -7.372,-4.322 -0.68,-0.675 -1.358,-1.354 -2.033,-2.034 -2.034,-1.525 -4.83,-2.288 -8.39,-2.288 -3.393,0 -5.935,0.509 -7.627,1.526 -1.525,1.017 -2.288,2.542 -2.288,4.576 0,2.713 4.405,5.001 13.22,6.864 1.017,0.342 1.907,0.597 2.669,0.763 0.763,0.171 1.482,0.255 2.161,0.255 8.644,2.204 14.657,4.747 18.05,7.626 3.218,3.051 4.83,7.118 4.83,12.203 0,7.46 -2.713,13.22 -8.135,17.287 -5.085,3.729 -12.711,5.593 -22.88,5.593 -9.66,0 -16.866,-1.946 -21.609,-5.847 -4.917,-3.897 -7.372,-9.573 -7.372,-17.033 v -0.763 z"
   id="path17"
   inkscape:connector-curvature="0"
   style="fill:#706f6f" />
		<path
   d="m 667.474,334.763 c -3.56,-3.05 -6.102,-7.157 -7.627,-12.329 -1.525,-5.168 -2.288,-10.551 -2.288,-16.144 0,-4.576 0.636,-9.151 1.907,-13.728 1.271,-4.576 3.261,-8.39 5.974,-11.44 4.405,-5.084 10.082,-8.091 17.033,-9.025 6.947,-0.929 13.22,-0.381 18.813,1.653 6.438,2.542 11.186,6.952 14.236,13.22 2.88,5.593 4.322,12.119 4.322,19.575 0,5.426 -0.597,10.085 -1.78,13.982 -1.188,3.9 -2.713,7.205 -4.575,9.914 -4.068,5.593 -9.24,9.068 -15.508,10.423 -5.594,1.525 -11.229,1.652 -16.906,0.382 -5.68,-1.27 -10.213,-3.432 -13.601,-6.483 z m 12.202,-44.743 c -3.559,3.901 -5.172,9.705 -4.83,17.415 0.338,7.714 1.779,13.093 4.321,16.143 1.018,1.358 2.797,2.503 5.34,3.433 2.542,0.934 5.123,1.017 7.753,0.254 2.626,-0.763 4.958,-2.67 6.991,-5.72 2.034,-3.051 3.134,-7.965 3.305,-14.745 0,-6.102 -0.977,-10.677 -2.923,-13.728 -1.95,-3.051 -4.194,-4.997 -6.737,-5.847 -2.542,-0.847 -5.084,-0.89 -7.626,-0.127 -2.543,0.761 -4.411,1.738 -5.594,2.922 z"
   id="path19"
   inkscape:connector-curvature="0"
   style="fill:#706f6f" />
		<path
   d="m 725.894,340.864 v -69.657 c 0,-6.102 1.609,-10.677 4.831,-13.728 3.05,-2.879 8.047,-4.322 14.998,-4.322 1.692,0 3.051,0.087 4.067,0.254 1.863,0 3.306,0.087 4.322,0.254 v 13.982 h -4.575 c -2.376,0 -4.068,0.342 -5.085,1.017 -0.851,0.679 -1.271,2.034 -1.271,4.068 v 4.575 h 10.932 v 3.814 c 0,2.542 -0.851,4.62 -2.542,6.228 -1.696,1.613 -3.646,2.415 -5.848,2.415 h -2.542 v 51.099 h -17.287 z"
   id="path21"
   inkscape:connector-curvature="0"
   style="fill:#706f6f" />
		<path
   d="m 788.636,340.864 c -5.593,0.338 -11.654,0.255 -18.177,-0.254 -6.526,-0.508 -9.787,-4.659 -9.787,-12.457 v -74.741 h 9.151 c 2.2,0 4.151,0.85 5.848,2.542 1.691,1.696 2.542,3.729 2.542,6.101 v 11.44 h 10.423 v 3.559 c 0,2.542 -0.851,4.62 -2.542,6.229 -1.696,1.613 -3.729,2.415 -6.102,2.415 h -1.779 v 37.625 c 0,2.884 1.692,4.322 5.085,4.322 h 5.338 v 13.219 z"
   id="path23"
   inkscape:connector-curvature="0"
   style="fill:#706f6f" />
	</g>
	<g
   id="g25">
		<g
   id="g27">
			<g
   id="g29">
				<path
   d="m 150.027,260.365 c 1.799,-0.24 3.665,-0.26 5.503,-0.092 1.839,0.169 3.659,0.527 5.365,1.045 1.713,0.521 3.318,1.206 4.716,2.027 1.409,0.828 2.611,1.797 3.501,2.88 l 17.641,21.454 -0.377,-0.321 -25.524,4.566 -20.608,-30.192 -0.465,0.062 10.248,-1.429 z m 35.803,27.013 -17.258,-21.074 c -0.852,-1.04 -2.003,-1.97 -3.354,-2.766 -1.339,-0.789 -2.88,-1.447 -4.524,-1.947 -1.638,-0.499 -3.386,-0.843 -5.151,-1.004 -1.766,-0.162 -3.557,-0.143 -5.284,0.089 l -9.743,1.308 20.391,29.85 24.923,-4.456"
   id="path31"
   inkscape:connector-curvature="0"
   style="fill:#95c11f" />
			</g>
			<g
   id="g33">
				<path
   d="m 150.258,260.676 c 1.727,-0.232 3.518,-0.251 5.284,-0.089 1.766,0.161 3.514,0.505 5.151,1.004 1.645,0.5 3.185,1.159 4.524,1.947 1.351,0.795 2.502,1.726 3.354,2.766 l 17.258,21.074 -24.923,4.456 -20.391,-29.85 9.743,-1.308 z"
   id="path35"
   inkscape:connector-curvature="0"
   style="fill:#95c11f" />
			</g>
			<g
   id="g37">
				<polygon
   points="133.192,262.792 152.755,293.373 101.378,302.563 88.516,268.78 "
   id="polygon39"
   style="fill:#ece8e0" />
			</g>
			<g
   id="g41">
				<path
   d="m 190.278,292.81 26.183,31.971 c 1.495,1.826 2.504,3.7 3.042,5.531 0.546,1.86 0.605,3.674 0.191,5.34 -0.42,1.691 -1.327,3.228 -2.701,4.497 -1.391,1.285 -3.256,2.294 -5.566,2.911 l -13.129,3.509 -33.463,-48.985 25.443,-4.774 z"
   id="path43"
   inkscape:connector-curvature="0"
   style="fill:#95c11f" />
			</g>
			<g
   id="g45">
				<path
   d="m 190.426,292.289 26.7,32.331 c 1.563,1.901 2.622,3.855 3.189,5.765 0.576,1.941 0.645,3.837 0.22,5.578 -0.433,1.77 -1.374,3.377 -2.806,4.707 -1.45,1.347 -3.396,2.404 -5.811,3.053 l -13.911,3.733 0.555,-0.283 -33.886,-49.644 26.042,-4.883 -0.292,-0.357 z m 26.035,32.491 -26.183,-31.971 -25.444,4.774 33.463,48.985 13.129,-3.509 c 2.311,-0.617 4.175,-1.626 5.566,-2.911 1.375,-1.27 2.281,-2.806 2.701,-4.496 0.415,-1.667 0.355,-3.48 -0.191,-5.341 -0.537,-1.831 -1.546,-3.705 -3.041,-5.531"
   id="path47"
   inkscape:connector-curvature="0"
   style="fill:#95c11f" />
			</g>
			<g
   id="g49">
				<polygon
   points="156.406,299.08 188.689,349.547 125.691,366.42 103.808,308.943 "
   id="polygon51"
   style="fill:#ece8e0" />
			</g>
			<g
   id="g53">
				<path
   d="m 160.851,291.925 25.524,-4.566 0.278,0.339 3.772,4.591 0.293,0.356 -26.042,4.884 33.886,49.644 -0.632,0.17 -9.091,2.438 -32.434,-50.701 -52.598,9.863 21.883,57.477 -11.783,3.459 -33.534,-100.008 8.098,-1.208 12.908,33.901 51.376,-9.19 -19.563,-30.581 6.585,-0.998 0.465,-0.062 20.609,30.192 z m 29.234,0.51 -3.879,-4.734 -25.58,4.587 -20.61,-30.295 -6.376,0.856 19.734,30.74 -52.363,9.39 -12.874,-34.025 -7.29,0.979 33.508,99.222 10.619,-2.84 -21.801,-57.62 53.477,-10.003 32.41,50.485 8.688,-2.323 -33.706,-49.544 26.043,-4.875"
   id="path55"
   inkscape:connector-curvature="0"
   style="fill:#bfbfbf" />
			</g>
			<g
   id="g57">
				<polygon
   points="88.136,268.953 101.01,302.979 153.373,293.588 133.639,262.849 140.015,261.993 160.625,292.288 186.206,287.701 190.085,292.435 164.041,297.307 197.747,346.852 189.058,349.175 156.648,298.69 103.171,308.693 124.973,366.313 114.354,369.153 80.846,269.932 "
   id="polygon59"
   style="fill:#f2eb7c" />
			</g>
			<g
   id="g61">
				<g
   id="g63">
					<path
   d="m 80.374,269.871 33.441,99.73 -17.405,4.662 c -3.259,0.872 -6.532,1.131 -9.644,0.845 -3.112,-0.285 -6.038,-1.112 -8.61,-2.396 -2.554,-1.274 -4.742,-2.991 -6.411,-5.06 -1.646,-2.042 -2.778,-4.415 -3.259,-7.031 l -8.036,-43.74 -1.211,-6.594 -5.025,-27.353 c -0.246,-1.342 -0.003,-2.67 0.637,-3.923 0.632,-1.236 1.653,-2.398 2.977,-3.428 1.308,-1.018 2.914,-1.908 4.741,-2.615 1.81,-0.701 3.842,-1.225 6.027,-1.519 l 11.778,-1.578 z"
   id="path65"
   inkscape:connector-curvature="0"
   style="fill:#438bca" />
				</g>
			</g>
		</g>
		<ellipse
   cx="134.556"
   cy="320.16"
   rx="22.834"
   ry="4.4640002"
   id="ellipse67"
   sodipodi:cx="134.556"
   sodipodi:cy="320.16"
   sodipodi:rx="22.834"
   sodipodi:ry="4.4640002"
   style="opacity:0.2;fill:#9d9d9c"
   d="m 157.39,320.16 c 0,2.4654 -10.22313,4.464 -22.834,4.464 -12.61087,0 -22.834,-1.9986 -22.834,-4.464 0,-2.4654 10.22313,-4.464 22.834,-4.464 12.61087,0 22.834,1.9986 22.834,4.464 z" />
		<g
   id="g69">
			<path
   d="m 170.576,254.709 c 0,19.821 -35.889,65.45 -35.889,65.45 0,0 -35.889,-45.629 -35.889,-65.45 0,-19.82 16.068,-35.888 35.889,-35.888 19.821,0 35.889,16.068 35.889,35.888 z"
   id="path71"
   inkscape:connector-curvature="0"
   style="fill:#be1622" />
			<circle
   cx="134.556"
   cy="255.077"
   r="14.449"
   id="circle73"
   sodipodi:cx="134.556"
   sodipodi:cy="255.077"
   sodipodi:rx="14.449"
   sodipodi:ry="14.449"
   style="opacity:0.3;fill:#f6f6f6"
   d="m 149.005,255.077 c 0,7.97996 -6.46904,14.449 -14.449,14.449 -7.97996,0 -14.449,-6.46904 -14.449,-14.449 0,-7.97997 6.46904,-14.449 14.449,-14.449 7.97996,0 14.449,6.46903 14.449,14.449 z" />
			<circle
   cx="134.687"
   cy="254.42"
   r="13.003"
   id="circle75"
   sodipodi:cx="134.687"
   sodipodi:cy="254.42"
   sodipodi:rx="13.003"
   sodipodi:ry="13.003"
   style="fill:#f6f6f6"
   d="m 147.69,254.42 c 0,7.18136 -5.82164,13.003 -13.003,13.003 -7.18136,0 -13.003,-5.82164 -13.003,-13.003 0,-7.18136 5.82164,-13.003 13.003,-13.003 7.18136,0 13.003,5.82164 13.003,13.003 z" />
			<path
   d="m 134.688,222.385 c 18.307,0 33.217,14.534 33.828,32.692 0.014,-0.28 0.021,-0.557 0.021,-0.828 0,-18.695 -15.155,-33.85 -33.85,-33.85 -18.695,0 -33.851,15.155 -33.851,33.85 0,0.271 0.008,0.547 0.022,0.828 0.611,-18.159 15.522,-32.692 33.83,-32.692 z"
   id="path77"
   inkscape:connector-curvature="0"
   style="opacity:0.35;fill:#f6f6f6" />
		</g>
	</g>
</g><g
   inkscape:groupmode="layer"
   id="layer1"
   inkscape:label="Text"><text
     xml:space="preserve"
     style="font-size:40px;font-style:normal;font-weight:normal;line-height:125%;letter-spacing:0px;word-spacing:0px;fill:#000000;fill-opacity:1;stroke:none;font-family:Sans"
     x="43.310658"
     y="-29.196978"
     id="text3077"
     sodipodi:linespacing="125%"
     transform="translate(-2.0870496e-6,0)"><tspan
       sodipodi:role="line"
       id="tspan3079"
       x="43.310658"
       y="-29.196978"
       style="-inkscape-font-specification:Harrington;font-family:Harrington;font-weight:normal;font-style:normal;font-stretch:normal;font-variant:normal;font-size:39.99999899px;text-anchor:start;text-align:start;writing-mode:lr;line-height:125%">Maprosoft</tspan></text>
</g>
</svg>