<?xml version="1.0" encoding="UTF-8" standalone="no"?>
<!-- Generator: Adobe Illustrator 16.0.0, SVG Export Plug-In . SVG Version: 6.00 Build 0)  -->

<svg
   xmlns:dc="http://purl.org/dc/elements/1.1/"
   xmlns:cc="http://creativecommons.org/ns#"
   xmlns:rdf="http://www.w3.org/1999/02/22-rdf-syntax-ns#"
   xmlns:svg="http://www.w3.org/2000/svg"
   xmlns="http://www.w3.org/2000/svg"
   xmlns:sodipodi="http://sodipodi.sourceforge.net/DTD/sodipodi-0.dtd"
   xmlns:inkscape="http://www.inkscape.org/namespaces/inkscape"
   version="1.1"
   id="Capa_1"
   x="0px"
   y="0px"
   width="24"
   height="24"
   viewBox="0 0 24 23.999999"
   enable-background="new 0 0 841.89 595.28"
   xml:space="preserve"
   inkscape:version="0.48.5 r10040"
   sodipodi:docname="Maprosoft-logo-no-text-gray.svg"><metadata
     id="metadata83"><rdf:RDF><cc:Work
         rdf:about=""><dc:format>image/svg+xml</dc:format><dc:type
           rdf:resource="http://purl.org/dc/dcmitype/StillImage" /><dc:title /></cc:Work></rdf:RDF></metadata><defs
     id="defs81" /><sodipodi:namedview
     pagecolor="#ffffff"
     bordercolor="#666666"
     borderopacity="1"
     objecttolerance="10"
     gridtolerance="10"
     guidetolerance="10"
     inkscape:pageopacity="0"
     inkscape:pageshadow="2"
     inkscape:window-width="1004"
     inkscape:window-height="814"
     id="namedview79"
     showgrid="false"
     inkscape:zoom="19.79896"
     inkscape:cx="15.234287"
     inkscape:cy="12.813239"
     inkscape:window-x="25"
     inkscape:window-y="0"
     inkscape:window-maximized="0"
     inkscape:current-layer="g27" /><g
     id="g3"
     transform="translate(0,-571.28003)"><g
       id="g25"
       transform="matrix(0.13783208,0,0,0.13783208,-6.8898592,542.12121)"><g
         id="g27"><g
           id="g29"><path
             d="m 150.027,260.365 c 1.799,-0.24 3.665,-0.26 5.503,-0.092 1.839,0.169 3.659,0.527 5.365,1.045 1.713,0.521 3.318,1.206 4.716,2.027 1.409,0.828 2.611,1.797 3.501,2.88 l 17.641,21.454 -0.377,-0.321 -25.524,4.566 -20.608,-30.192 -0.465,0.062 10.248,-1.429 z m 35.803,27.013 -17.258,-21.074 c -0.852,-1.04 -2.003,-1.97 -3.354,-2.766 -1.339,-0.789 -2.88,-1.447 -4.524,-1.947 -1.638,-0.499 -3.386,-0.843 -5.151,-1.004 -1.766,-0.162 -3.557,-0.143 -5.284,0.089 l -9.743,1.308 20.391,29.85 24.923,-4.456"
             id="path31"
             inkscape:connector-curvature="0"
             style="fill:#95c11f" /></g><g
           id="g33"><path
             d="m 150.258,260.676 c 1.727,-0.232 3.518,-0.251 5.284,-0.089 1.766,0.161 3.514,0.505 5.151,1.004 1.645,0.5 3.185,1.159 4.524,1.947 1.351,0.795 2.502,1.726 3.354,2.766 l 17.258,21.074 -24.923,4.456 -20.391,-29.85 9.743,-1.308 z"
             id="path35"
             inkscape:connector-curvature="0"
             style="fill:#888888" /></g><g
           id="g37"><polygon
             points="101.378,302.563 88.516,268.78 133.192,262.792 152.755,293.373 "
             id="polygon39"
             style="fill:#ece8e0" /></g><g
           id="g41"><path
             d="m 190.278,292.81 26.183,31.971 c 1.495,1.826 2.504,3.7 3.042,5.531 0.546,1.86 0.605,3.674 0.191,5.34 -0.42,1.691 -1.327,3.228 -2.701,4.497 -1.391,1.285 -3.256,2.294 -5.566,2.911 l -13.129,3.509 -33.463,-48.985 25.443,-4.774 z"
             id="path43"
             inkscape:connector-curvature="0"
             style="fill:#aaaaaa" /></g><g
           id="g45"><path
             d="m 190.426,292.289 26.7,32.331 c 1.563,1.901 2.622,3.855 3.189,5.765 0.576,1.941 0.645,3.837 0.22,5.578 -0.433,1.77 -1.374,3.377 -2.806,4.707 -1.45,1.347 -3.396,2.404 -5.811,3.053 l -13.911,3.733 0.555,-0.283 -33.886,-49.644 26.042,-4.883 -0.292,-0.357 z m 26.035,32.491 -26.183,-31.971 -25.444,4.774 33.463,48.985 13.129,-3.509 c 2.311,-0.617 4.175,-1.626 5.566,-2.911 1.375,-1.27 2.281,-2.806 2.701,-4.496 0.415,-1.667 0.355,-3.48 -0.191,-5.341 -0.537,-1.831 -1.546,-3.705 -3.041,-5.531"
             id="path47"
             inkscape:connector-curvature="0"
             style="fill:#888888" /></g><g
           id="g49"><polygon
             points="125.691,366.42 103.808,308.943 156.406,299.08 188.689,349.547 "
             id="polygon51"
             style="fill:#ece8e0" /></g><g
           id="g53"><path
             d="m 160.851,291.925 25.524,-4.566 0.278,0.339 3.772,4.591 0.293,0.356 -26.042,4.884 33.886,49.644 -0.632,0.17 -9.091,2.438 -32.434,-50.701 -52.598,9.863 21.883,57.477 -11.783,3.459 -33.534,-100.008 8.098,-1.208 12.908,33.901 51.376,-9.19 -19.563,-30.581 6.585,-0.998 0.465,-0.062 20.609,30.192 z m 29.234,0.51 -3.879,-4.734 -25.58,4.587 -20.61,-30.295 -6.376,0.856 19.734,30.74 -52.363,9.39 -12.874,-34.025 -7.29,0.979 33.508,99.222 10.619,-2.84 -21.801,-57.62 53.477,-10.003 32.41,50.485 8.688,-2.323 -33.706,-49.544 26.043,-4.875"
             id="path55"
             inkscape:connector-curvature="0"
             style="fill:#bfbfbf" /></g><g
           id="g57"><polygon
             points="153.373,293.588 133.639,262.849 140.015,261.993 160.625,292.288 186.206,287.701 190.085,292.435 164.041,297.307 197.747,346.852 189.058,349.175 156.648,298.69 103.171,308.693 124.973,366.313 114.354,369.153 80.846,269.932 88.136,268.953 101.01,302.979 "
             id="polygon59"
             style="fill:#eeeeee" /></g><g
           id="g61"><g
             id="g63"><path
               d="m 80.374,269.871 33.441,99.73 -17.405,4.662 c -3.259,0.872 -6.532,1.131 -9.644,0.845 -3.112,-0.285 -6.038,-1.112 -8.61,-2.396 -2.554,-1.274 -4.742,-2.991 -6.411,-5.06 -1.646,-2.042 -2.778,-4.415 -3.259,-7.031 l -8.036,-43.74 -1.211,-6.594 -5.025,-27.353 c -0.246,-1.342 -0.003,-2.67 0.637,-3.923 0.632,-1.236 1.653,-2.398 2.977,-3.428 1.308,-1.018 2.914,-1.908 4.741,-2.615 1.81,-0.701 3.842,-1.225 6.027,-1.519 l 11.778,-1.578 z"
               id="path65"
               inkscape:connector-curvature="0"
               style="fill:#aaaaaa" /></g></g></g><ellipse
         cx="134.556"
         cy="320.16"
         rx="22.834"
         ry="4.4640002"
         id="ellipse67"
         d="m 157.39,320.16 c 0,2.4654 -10.22313,4.464 -22.834,4.464 -12.61087,0 -22.834,-1.9986 -22.834,-4.464 0,-2.4654 10.22313,-4.464 22.834,-4.464 12.61087,0 22.834,1.9986 22.834,4.464 z"
         sodipodi:cx="134.556"
         sodipodi:cy="320.16"
         sodipodi:rx="22.834"
         sodipodi:ry="4.4640002"
         style="opacity:0.2;fill:#9d9d9c" /><g
         id="g69"><path
           d="m 170.576,254.709 c 0,19.821 -35.889,65.45 -35.889,65.45 0,0 -35.889,-45.629 -35.889,-65.45 0,-19.82 16.068,-35.888 35.889,-35.888 19.821,0 35.889,16.068 35.889,35.888 z"
           id="path71"
           inkscape:connector-curvature="0"
           style="fill:#888888" /><circle
           cx="134.556"
           cy="255.077"
           r="14.449"
           id="circle73"
           d="m 149.005,255.077 c 0,7.97996 -6.46904,14.449 -14.449,14.449 -7.97996,0 -14.449,-6.46904 -14.449,-14.449 0,-7.97997 6.46904,-14.449 14.449,-14.449 7.97996,0 14.449,6.46903 14.449,14.449 z"
           sodipodi:cx="134.556"
           sodipodi:cy="255.077"
           sodipodi:rx="14.449"
           sodipodi:ry="14.449"
           style="opacity:0.3;fill:#f6f6f6" /><circle
           cx="134.687"
           cy="254.42"
           r="13.003"
           id="circle75"
           d="m 147.69,254.42 c 0,7.18136 -5.82164,13.003 -13.003,13.003 -7.18136,0 -13.003,-5.82164 -13.003,-13.003 0,-7.18136 5.82164,-13.003 13.003,-13.003 7.18136,0 13.003,5.82164 13.003,13.003 z"
           sodipodi:cx="134.687"
           sodipodi:cy="254.42"
           sodipodi:rx="13.003"
           sodipodi:ry="13.003"
           style="fill:#f6f6f6" /><path
           d="m 134.688,222.385 c 18.307,0 33.217,14.534 33.828,32.692 0.014,-0.28 0.021,-0.557 0.021,-0.828 0,-18.695 -15.155,-33.85 -33.85,-33.85 -18.695,0 -33.851,15.155 -33.851,33.85 0,0.271 0.008,0.547 0.022,0.828 0.611,-18.159 15.522,-32.692 33.83,-32.692 z"
           id="path77"
           inkscape:connector-curvature="0"
           style="opacity:0.35;fill:#f6f6f6" /></g></g></g></svg>