<?xml version="1.0" encoding="UTF-8" standalone="no"?>
<!-- Generator: Adobe Illustrator 16.0.0, SVG Export Plug-In . SVG Version: 6.00 Build 0)  -->

<svg
   xmlns:dc="http://purl.org/dc/elements/1.1/"
   xmlns:cc="http://creativecommons.org/ns#"
   xmlns:rdf="http://www.w3.org/1999/02/22-rdf-syntax-ns#"
   xmlns:svg="http://www.w3.org/2000/svg"
   xmlns="http://www.w3.org/2000/svg"
   xmlns:sodipodi="http://sodipodi.sourceforge.net/DTD/sodipodi-0.dtd"
   xmlns:inkscape="http://www.inkscape.org/namespaces/inkscape"
   version="1.1"
   id="Capa_1"
   x="0px"
   y="0px"
   width="841.89px"
   height="595.28px"
   viewBox="0 0 841.89 595.28"
   enable-background="new 0 0 841.89 595.28"
   xml:space="preserve"
   inkscape:version="0.48.2 r9819"
   sodipodi:docname="Maprosoft-logo.svg"><metadata
   id="metadata83"><rdf:RDF><cc:Work
       rdf:about=""><dc:format>image/svg+xml</dc:format><dc:type
         rdf:resource="http://purl.org/dc/dcmitype/StillImage" /></cc:Work></rdf:RDF></metadata><defs
   id="defs81" /><sodipodi:namedview
   pagecolor="#ffffff"
   bordercolor="#666666"
   borderopacity="1"
   objecttolerance="10"
   gridtolerance="10"
   guidetolerance="10"
   inkscape:pageopacity="0"
   inkscape:pageshadow="2"
   inkscape:window-width="1345"
   inkscape:window-height="1060"
   id="namedview79"
   showgrid="false"
   inkscape:zoom="1"
   inkscape:cx="299.94501"
   inkscape:cy="297.64001"
   inkscape:window-x="0"
   inkscape:window-y="0"
   inkscape:window-maximized="0"
   inkscape:current-layer="layer1" />
<g
   id="g3">
	
	<g
   id="g25">
		<g
   id="g27">
			<g
   id="g29">
				<path
   fill="#95C11F"
   d="M150.027,260.365c1.799-0.24,3.665-0.26,5.503-0.092c1.839,0.169,3.659,0.527,5.365,1.045      c1.713,0.521,3.318,1.206,4.716,2.027c1.409,0.828,2.611,1.797,3.501,2.88l17.641,21.454l-0.377-0.321l-25.524,4.566      l-20.608-30.192l-0.465,0.062L150.027,260.365z M185.83,287.378l-17.258-21.074c-0.852-1.04-2.003-1.97-3.354-2.766      c-1.339-0.789-2.88-1.447-4.524-1.947c-1.638-0.499-3.386-0.843-5.151-1.004c-1.766-0.162-3.557-0.143-5.284,0.089l-9.743,1.308      l20.391,29.85L185.83,287.378"
   id="path31" />
			</g>
			<g
   id="g33">
				<path
   fill="#95C11F"
   d="M150.258,260.676c1.727-0.232,3.518-0.251,5.284-0.089c1.766,0.161,3.514,0.505,5.151,1.004      c1.645,0.5,3.185,1.159,4.524,1.947c1.351,0.795,2.502,1.726,3.354,2.766l17.258,21.074l-24.923,4.456l-20.391-29.85      L150.258,260.676z"
   id="path35" />
			</g>
			<g
   id="g37">
				<polygon
   fill="#ECE8E0"
   points="133.192,262.792 152.755,293.373 101.378,302.563 88.516,268.78     "
   id="polygon39" />
			</g>
			<g
   id="g41">
				<path
   fill="#95C11F"
   d="M190.278,292.81l26.183,31.971c1.495,1.826,2.504,3.7,3.042,5.531c0.546,1.86,0.605,3.674,0.191,5.34      c-0.42,1.691-1.327,3.228-2.701,4.497c-1.391,1.285-3.256,2.294-5.566,2.911l-13.129,3.509l-33.463-48.985L190.278,292.81z"
   id="path43" />
			</g>
			<g
   id="g45">
				<path
   fill="#95C11F"
   d="M190.426,292.289l26.7,32.331c1.563,1.901,2.622,3.855,3.189,5.765c0.576,1.941,0.645,3.837,0.22,5.578      c-0.433,1.77-1.374,3.377-2.806,4.707c-1.45,1.347-3.396,2.404-5.811,3.053l-13.911,3.733l0.555-0.283l-33.886-49.644      l26.042-4.883L190.426,292.289z M216.461,324.78l-26.183-31.971l-25.444,4.774l33.463,48.985l13.129-3.509      c2.311-0.617,4.175-1.626,5.566-2.911c1.375-1.27,2.281-2.806,2.701-4.496c0.415-1.667,0.355-3.48-0.191-5.341      C218.965,328.48,217.956,326.606,216.461,324.78"
   id="path47" />
			</g>
			<g
   id="g49">
				<polygon
   fill="#ECE8E0"
   points="156.406,299.08 188.689,349.547 125.691,366.42 103.808,308.943     "
   id="polygon51" />
			</g>
			<g
   id="g53">
				<path
   fill="#BFBFBF"
   d="M160.851,291.925l25.524-4.566l0.278,0.339l3.772,4.591l0.293,0.356l-26.042,4.884l33.886,49.644      l-0.632,0.17l-9.091,2.438l-32.434-50.701l-52.598,9.863l21.883,57.477l-11.783,3.459L80.373,269.871l8.098-1.208l12.908,33.901      l51.376-9.19l-19.563-30.581l6.585-0.998l0.465-0.062L160.851,291.925z M190.085,292.435l-3.879-4.734l-25.58,4.587      l-20.61-30.295l-6.376,0.856l19.734,30.74l-52.363,9.39l-12.874-34.025l-7.29,0.979l33.508,99.222l10.619-2.84l-21.801-57.62      l53.477-10.003l32.41,50.485l8.688-2.323l-33.706-49.544L190.085,292.435"
   id="path55" />
			</g>
			<g
   id="g57">
				<polygon
   fill="#F2EB7C"
   points="140.015,261.993 160.625,292.288 186.206,287.701 190.085,292.435 164.041,297.307       197.747,346.852 189.058,349.175 156.648,298.69 103.171,308.693 124.973,366.313 114.354,369.153 80.846,269.932       88.136,268.953 101.01,302.979 153.373,293.588 133.639,262.849     "
   id="polygon59" />
			</g>
			<g
   id="g61">
				<g
   id="g63">
					<path
   fill="#438BCA"
   d="M80.374,269.871l33.441,99.73l-17.405,4.662c-3.259,0.872-6.532,1.131-9.644,0.845       c-3.112-0.285-6.038-1.112-8.61-2.396c-2.554-1.274-4.742-2.991-6.411-5.06c-1.646-2.042-2.778-4.415-3.259-7.031l-8.036-43.74       l-1.211-6.594l-5.025-27.353c-0.246-1.342-0.003-2.67,0.637-3.923c0.632-1.236,1.653-2.398,2.977-3.428       c1.308-1.018,2.914-1.908,4.741-2.615c1.81-0.701,3.842-1.225,6.027-1.519L80.374,269.871z"
   id="path65" />
				</g>
			</g>
		</g>
		<ellipse
   opacity="0.2"
   fill="#9D9D9C"
   cx="134.556"
   cy="320.16"
   rx="22.834"
   ry="4.464"
   id="ellipse67" />
		<g
   id="g69">
			<path
   fill="#BE1622"
   d="M170.576,254.709c0,19.821-35.889,65.45-35.889,65.45s-35.889-45.629-35.889-65.45     c0-19.82,16.068-35.888,35.889-35.888C154.508,218.821,170.576,234.889,170.576,254.709z"
   id="path71" />
			<circle
   opacity="0.3"
   fill="#F6F6F6"
   cx="134.556"
   cy="255.077"
   r="14.449"
   id="circle73" />
			<circle
   fill="#F6F6F6"
   cx="134.687"
   cy="254.42"
   r="13.003"
   id="circle75" />
			<path
   opacity="0.35"
   fill="#F6F6F6"
   d="M134.688,222.385c18.307,0,33.217,14.534,33.828,32.692     c0.014-0.28,0.021-0.557,0.021-0.828c0-18.695-15.155-33.85-33.85-33.85c-18.695,0-33.851,15.155-33.851,33.85     c0,0.271,0.008,0.547,0.022,0.828C101.469,236.918,116.38,222.385,134.688,222.385z"
   id="path77" />
		</g>
	</g>
</g><g
   inkscape:groupmode="layer"
   id="layer1"
   inkscape:label="Text" />
<text
   xml:space="preserve"
   style="font-size:135.56884766px;font-style:normal;font-weight:normal;line-height:125%;letter-spacing:0px;word-spacing:0px;fill:#706f6f;fill-opacity:1;stroke:none;font-family:Sans"
   x="256.48352"
   y="343.15643"
   id="text3060"
   sodipodi:linespacing="125%"
   transform="scale(1.0059125,0.99412225)"><tspan
     sodipodi:role="line"
     id="tspan3062"
     x="256.48352"
     y="343.15643"
     style="font-size:135.56884766px;font-style:normal;font-variant:normal;font-weight:bold;font-stretch:normal;text-align:start;line-height:125%;writing-mode:lr-tb;text-anchor:start;fill:#706f6f;fill-opacity:1;font-family:Harabara;-inkscape-font-specification:Harabara Bold">Maprosoft</tspan></text>
</svg>